<svg width="40" height="40" viewBox="0 0 40 40" fill="none" xmlns="http://www.w3.org/2000/svg">
<circle cx="20" cy="20" r="18.5" stroke="white" stroke-width="3"/>
<path d="M24.3592 20.24C24.1007 20.24 23.8977 20.4477 23.8977 20.7015V21.6985H27.0269V20.7015C27.0269 20.4477 26.8192 20.24 26.5653 20.24H24.3592ZM16.3875 27.0818C16.7108 27.2623 17.0842 27.3323 17.4509 27.2813C17.8176 27.2303 18.1577 27.0611 18.4195 26.7993C18.6813 26.5374 18.8506 26.1974 18.9016 25.8306C18.9526 25.4639 18.8826 25.0905 18.7021 24.7672L16.3875 27.0818ZM17.2183 23.8986C16.9218 23.8989 16.6306 23.9766 16.3735 24.124C16.1163 24.2715 15.9022 24.4836 15.7522 24.7393C15.6023 24.995 15.5218 25.2855 15.5186 25.5819C15.5155 25.8783 15.5899 26.1704 15.7344 26.4292L18.049 24.1146C17.7953 23.9723 17.5092 23.8979 17.2183 23.8986Z" fill="#A1E3F9"/>
<path d="M26.8656 14.9185C26.8656 16.1508 25.8641 17.1523 24.6318 17.1523C23.8425 17.1523 23.141 16.7462 22.7441 16.1092C22.4764 16.3262 22.1533 16.4785 21.8164 16.5523C21.6874 16.3877 21.5228 16.2544 21.335 16.1625C21.1471 16.0706 20.9409 16.0224 20.7318 16.0216H14.2148C14.4825 15.5831 14.8795 15.2369 15.3595 15.0385C15.1472 14.6785 15.0318 14.2631 15.0318 13.8339C15.0318 12.5046 16.1118 11.42 17.4456 11.42C17.7225 11.42 17.9948 11.4708 18.2533 11.5631C18.4249 11.1061 18.7323 10.7126 19.1341 10.4354C19.5359 10.1582 20.0129 10.0106 20.501 10.0123C20.8195 10.0123 21.1287 10.0723 21.4148 10.1923C21.6874 9.80203 22.0498 9.48299 22.4715 9.2621C22.8932 9.04121 23.3619 8.92494 23.8379 8.9231C25.4672 8.9231 26.7964 10.2523 26.7964 11.8816C26.7964 12.4492 26.6302 12.9985 26.3256 13.4739C26.6764 13.8754 26.8656 14.3831 26.8656 14.9185ZM28.5779 23.0831V30.6154C28.5779 30.8739 28.3748 31.0769 28.1164 31.0769H23.8518C23.9385 30.8408 23.9592 30.5855 23.9118 30.3385L22.3841 22.8939C22.4579 22.7323 22.6195 22.6216 22.8041 22.6216H28.1164C28.3748 22.6216 28.5779 22.8246 28.5779 23.0831Z" fill="white"/>
<path d="M21.1929 17.4061C21.1929 17.1523 20.9899 16.9446 20.7314 16.9446H13.7022C13.4483 16.9446 13.2406 17.1523 13.2406 17.4061V21.6753L11.4314 30.523C11.4037 30.6615 11.4406 30.8 11.5283 30.9107C11.6114 31.0169 11.7453 31.0769 11.8837 31.0769H22.5545C22.6929 31.0769 22.8222 31.0169 22.9099 30.9107C22.9976 30.8 23.0345 30.6615 23.0068 30.523L21.1929 21.6753V17.4061ZM17.2182 28.2204C16.8737 28.2213 16.5325 28.1539 16.2142 28.0222C15.8959 27.8904 15.6068 27.697 15.3637 27.4529L15.3619 27.4506C15.1182 27.2076 14.925 26.9189 14.7935 26.6009C14.662 26.2829 14.5948 25.9421 14.5957 25.598C14.5964 24.9027 14.873 24.2361 15.3646 23.7444C15.8563 23.2528 16.5229 22.9762 17.2182 22.9755C17.9188 22.9755 18.5774 23.2478 19.0726 23.7435C19.5679 24.2392 19.8406 24.8973 19.8406 25.598C19.8399 26.2933 19.5634 26.9599 19.0717 27.4515C18.5801 27.9432 17.9135 28.2197 17.2182 28.2204Z" fill="#A1E3F9"/>
</svg>
