<svg width="85" height="85" viewBox="0 0 85 85" fill="none" xmlns="http://www.w3.org/2000/svg">
<g clip-path="url(#clip0_94_253)">
<mask id="mask0_94_253" style="mask-type:luminance" maskUnits="userSpaceOnUse" x="0" y="0" width="85" height="85">
<path d="M0.0795898 85V0.0531006H84.9999V85H0.0795898Z" fill="white"/>
</mask>
<g mask="url(#mask0_94_253)">
<path fill-rule="evenodd" clip-rule="evenodd" d="M85 42.5C85 65.972 65.972 85 42.5 85C19.028 85 0 65.972 0 42.5C0 19.028 19.028 0 42.5 0C65.972 0 85 19.028 85 42.5Z" fill="#73BBA3"/>
</g>
<path fill-rule="evenodd" clip-rule="evenodd" d="M62.5162 70.4848C61.8184 70.486 61.1273 70.3491 60.4826 70.0819C59.838 69.8148 59.2526 69.4227 58.7602 68.9283L42.5 52.6694L43.8281 51.3413L58.7602 66.2734C59.2529 66.7674 59.8383 67.1591 60.4829 67.426C61.1275 67.6929 61.8185 67.8297 62.5162 67.8286C63.6944 67.8298 64.8395 67.4389 65.7711 66.7175C66.7026 65.9961 67.3677 64.9853 67.6613 63.8442C67.8641 64.6294 67.8843 65.4505 67.7207 66.2447C67.557 67.0389 67.2137 67.7851 66.717 68.4261C66.2204 69.0671 65.5836 69.5859 64.8554 69.9428C64.1272 70.2996 63.3271 70.4851 62.5162 70.4848ZM36.8528 43.2902L27.9066 34.4541L27.8973 34.4648L20.0467 30.422L16.0039 22.5714L19.8116 18.7637L27.6622 22.8065L28.9133 25.2343L28.3302 24.6592L24.4335 28.3673L38.1889 41.9541L36.8528 43.2902Z" fill="#629986"/>
<path fill-rule="evenodd" clip-rule="evenodd" d="M45.8188 49.4899L24.4333 28.3674L28.3301 24.6593L49.7155 45.7818L45.8188 49.4899Z" fill="#4C5665"/>
<path fill-rule="evenodd" clip-rule="evenodd" d="M66.2733 66.2734C65.78 66.7667 65.1943 67.1581 64.5497 67.4251C63.9052 67.6921 63.2143 67.8295 62.5167 67.8295C61.819 67.8295 61.1282 67.6921 60.4836 67.4251C59.8391 67.1581 59.2534 66.7667 58.7601 66.2734L39.9777 47.4897C39.4841 46.9967 39.0925 46.4112 38.8254 45.7667C38.5582 45.1223 38.4207 44.4315 38.4207 43.7338C38.4207 43.0361 38.5582 42.3453 38.8254 41.7008C39.0925 41.0564 39.4841 40.4709 39.9777 39.9779C40.4708 39.4842 41.0562 39.0926 41.7007 38.8255C42.3452 38.5583 43.036 38.4208 43.7337 38.4208C44.4313 38.4208 45.1222 38.5583 45.7666 38.8255C46.4111 39.0926 46.9966 39.4842 47.4896 39.9779L66.2733 58.7602C66.7666 59.2535 67.158 59.8392 67.425 60.4837C67.692 61.1283 67.8294 61.8191 67.8294 62.5168C67.8294 63.2145 67.692 63.9053 67.425 64.5499C67.158 65.1944 66.7666 65.7801 66.2733 66.2734Z" fill="#F0CB83"/>
<path fill-rule="evenodd" clip-rule="evenodd" d="M26.5625 74.3749C24.9043 74.3733 23.2611 74.0597 21.7188 73.4506L30.3184 64.8496C30.8258 64.3596 31.2306 63.7733 31.509 63.1252C31.7874 62.4771 31.934 61.7799 31.9401 61.0746C31.9462 60.3692 31.8118 59.6696 31.5447 59.0167C31.2776 58.3638 30.8831 57.7707 30.3843 57.2719C29.8855 56.7731 29.2923 56.3786 28.6394 56.1115C27.9866 55.8444 27.287 55.71 26.5816 55.7161C25.8762 55.7222 25.1791 55.8688 24.531 56.1472C23.8828 56.4256 23.2966 56.8303 22.8066 57.3377L14.2056 65.9373C13.5964 64.3951 13.2828 62.7519 13.2812 61.0937C13.2812 53.7584 19.2273 47.8124 26.5625 47.8124C28.2731 47.8124 29.9041 48.1471 31.4062 48.7368L36.8528 43.2902L38.5701 44.9862L38.6006 45.107C38.165 46.8562 38.6099 48.7793 39.9779 50.1459L42.5 52.6694L38.9194 56.25C39.5286 57.7923 39.8422 59.4354 39.8438 61.0937C39.8438 68.4289 33.8977 74.3749 26.5625 74.3749Z" fill="#629986"/>
<path fill-rule="evenodd" clip-rule="evenodd" d="M42.5 52.6694L39.9779 50.146C38.6099 48.7793 38.165 46.8562 38.6006 45.1071C38.841 46.0091 39.3162 46.8312 39.9779 47.4897L43.8281 51.3413L42.5 52.6694ZM38.5701 44.9862L36.8528 43.2902L38.1889 41.9541L38.6006 42.3605C38.3721 43.2196 38.3616 44.1221 38.5701 44.9862Z" fill="#568071"/>
<path fill-rule="evenodd" clip-rule="evenodd" d="M51.3412 43.8281L47.4896 39.9779C46.9972 39.4835 46.4119 39.0914 45.7672 38.8243C45.1226 38.5571 44.4315 38.4202 43.7337 38.4213C43.2941 38.4213 42.8558 38.4758 42.4282 38.5834L41.9912 38.1517L46.0805 34.0624C45.4712 32.5202 45.1577 30.877 45.1561 29.2188C45.1561 21.8835 51.1021 15.9375 58.4374 15.9375C60.1493 15.9375 61.7789 16.2722 63.2811 16.8619L54.6814 25.4628C54.174 25.9529 53.7693 26.5391 53.4909 27.1872C53.2125 27.8354 53.0659 28.5325 53.0598 29.2379C53.0537 29.9433 53.1881 30.6428 53.4552 31.2957C53.7223 31.9486 54.1168 32.5417 54.6156 33.0405C55.1144 33.5393 55.7076 33.9338 56.3604 34.2009C57.0133 34.468 57.7129 34.6025 58.4183 34.5963C59.1237 34.5902 59.8208 34.4436 60.4689 34.1652C61.1171 33.8868 61.7033 33.4821 62.1933 32.9747L70.7943 24.3751C71.4034 25.9174 71.717 27.5605 71.7186 29.2188C71.7186 36.554 65.7726 42.5 58.4374 42.5C56.7791 42.4985 55.136 42.1849 53.5937 41.5756L51.3412 43.8281Z" fill="#629986"/>
<path fill-rule="evenodd" clip-rule="evenodd" d="M38.6004 42.3606L38.1887 41.9542L39.2313 40.9116C38.9501 41.3605 38.7375 41.8489 38.6004 42.3606ZM40.9114 39.2315L41.9911 38.1517L42.4281 38.5834C41.8918 38.7189 41.38 38.9376 40.9114 39.2315Z" fill="#414A55"/>
<path fill-rule="evenodd" clip-rule="evenodd" d="M43.828 51.3413L39.9777 47.4897C39.2861 46.8013 38.7988 45.9348 38.5699 44.9862C38.4034 44.2972 38.3761 43.5818 38.4897 42.8821C38.6033 42.1824 38.8554 41.5125 39.2313 40.9115L40.9114 39.2314C41.757 38.7007 42.7354 38.4199 43.7337 38.4213C45.0937 38.4213 46.4524 38.9392 47.4896 39.9778L51.3412 43.8281L43.828 51.3413Z" fill="#C1A56E"/>
<path fill-rule="evenodd" clip-rule="evenodd" d="M54.3043 38.2088L38.2088 54.3043L30.6956 46.7911L46.7911 30.6956L54.3043 38.2088Z" fill="#FFFFFE"/>
<path fill-rule="evenodd" clip-rule="evenodd" d="M27.8973 31.8085L20.0467 27.7657L16.0039 19.9152L19.8116 16.1074L27.6622 20.1502L31.705 28.0008L27.8973 31.8085Z" fill="#4C5665"/>
<path fill-rule="evenodd" clip-rule="evenodd" d="M62.1934 30.3184C61.7034 30.8258 61.1172 31.2306 60.469 31.509C59.8209 31.7874 59.1238 31.934 58.4184 31.9401C57.713 31.9462 57.0134 31.8118 56.3606 31.5447C55.7077 31.2776 55.1145 30.8831 54.6157 30.3843C54.1169 29.8855 53.7224 29.2923 53.4553 28.6394C53.1882 27.9866 53.0538 27.287 53.0599 26.5816C53.066 25.8762 53.2126 25.1791 53.491 24.531C53.7694 23.8828 54.1742 23.2966 54.6816 22.8066L63.2812 14.2056C61.7389 13.5964 60.0958 13.2828 58.4375 13.2812C51.1023 13.2813 45.1562 19.2273 45.1562 26.5625C45.1562 33.8977 51.1023 39.8438 58.4375 39.8438C65.7727 39.8438 71.7188 33.8977 71.7188 26.5625C71.7171 24.9043 71.4035 23.2611 70.7944 21.7188L62.1934 30.3184ZM22.8066 54.6816C23.2966 54.1742 23.8828 53.7694 24.531 53.491C25.1791 53.2126 25.8762 53.066 26.5816 53.0599C27.287 53.0538 27.9866 53.1882 28.6394 53.4553C29.2923 53.7224 29.8855 54.1169 30.3843 54.6157C30.8831 55.1145 31.2776 55.7077 31.5447 56.3606C31.8118 57.0134 31.9462 57.713 31.9401 58.4184C31.934 59.1238 31.7874 59.8209 31.509 60.469C31.2306 61.1172 30.8258 61.7034 30.3184 62.1934L21.7188 70.7944C23.2611 71.4035 24.9043 71.7171 26.5625 71.7188C33.8977 71.7188 39.8438 65.7727 39.8438 58.4375C39.8438 51.1023 33.8977 45.1562 26.5625 45.1562C19.2273 45.1562 13.2812 51.1023 13.2812 58.4375C13.2812 60.1495 13.6159 61.7791 14.2056 63.2812L22.8066 54.6816Z" fill="#FFFFFE"/>
</g>
<defs>
<clipPath id="clip0_94_253">
<rect width="85" height="85" fill="white"/>
</clipPath>
</defs>
</svg>
