<svg width="86" height="85" viewBox="0 0 86 85" fill="none" xmlns="http://www.w3.org/2000/svg">
<g clip-path="url(#clip0_94_237)">
<path d="M42.6948 0C19.2277 0 0.194824 19.0347 0.194824 42.5C0.194824 65.9689 19.2277 85 42.6948 85C66.1619 85 85.1948 65.9689 85.1948 42.5C85.1948 19.0347 66.1619 0 42.6948 0ZM42.6948 2.65625C64.6957 2.65625 82.5386 20.5009 82.5386 42.5C82.5386 64.5008 64.6957 82.3438 42.6948 82.3438C20.694 82.3438 2.85107 64.5008 2.85107 42.5C2.85107 20.5009 20.694 2.65625 42.6948 2.65625Z" fill="#F2F9FF"/>
<path d="M42.6948 7.52612C23.3838 7.52612 7.72083 23.1909 7.72083 42.5001C7.72083 61.8128 23.3838 77.474 42.6948 77.474C62.0057 77.474 77.6687 61.8128 77.6687 42.5001C77.6687 23.1909 62.0057 7.52612 42.6948 7.52612Z" fill="#A1E3F9"/>
<path d="M42.6948 7.52612C23.3839 7.52612 7.72085 23.1909 7.72085 42.5001C7.71588 47.0978 8.6205 51.6511 10.3826 55.8977C12.1447 60.1444 14.7296 64.0005 17.9882 67.244L67.4387 17.7952C64.1952 14.5366 60.3391 11.9517 56.0925 10.1896C51.8458 8.4275 47.2925 7.52116 42.6948 7.52612Z" fill="#146ABB"/>
<path d="M27.5365 22.8707C27.3486 22.8707 27.1684 22.9454 27.0356 23.0782C26.9028 23.211 26.8281 23.3912 26.8281 23.5791V61.8304C26.8281 62.0183 26.9028 62.1985 27.0356 62.3313C27.1684 62.4642 27.3486 62.5388 27.5365 62.5388H38.8702C39.0581 62.5388 39.2383 62.4642 39.3711 62.3313C39.5039 62.1985 39.5786 62.0183 39.5786 61.8304V23.5791C39.5786 23.3912 39.5039 23.211 39.3711 23.0782C39.2383 22.9454 39.0581 22.8707 38.8702 22.8707H27.5365ZM49.4843 22.8707C47.9259 22.8707 46.6508 24.1458 46.6508 25.7042V29.1298C46.6381 29.2067 46.6381 29.2852 46.6508 29.3621V51.9134C46.6511 52.0231 46.6768 52.1313 46.7259 52.2293L51.6844 62.1464C51.7433 62.2639 51.8337 62.3627 51.9456 62.4317C52.0574 62.5008 52.1863 62.5373 52.3177 62.5373C52.4491 62.5373 52.578 62.5008 52.6898 62.4317C52.8017 62.3627 52.8921 62.2639 52.951 62.1464L57.9095 52.2293C57.9624 52.124 57.9882 52.0072 57.9846 51.8893V29.355C57.9967 29.28 57.9967 29.2034 57.9846 29.1284V25.7042C57.9846 24.1458 56.7095 22.8707 55.1511 22.8707H49.4843ZM28.2448 24.2874H38.1619V61.1221H28.2448V58.2886H32.495V56.8719H28.2448V54.0385H33.9117V52.6218H28.2448V49.7883H32.495V48.3716H28.2448V45.5382H33.9117V44.1215H28.2448V41.288H32.495V39.8713H28.2448V37.0379H33.9117V35.6212H28.2448V32.7877H32.495V31.371H28.2448V28.5376H33.9117V27.1209H28.2448V24.2874ZM49.4843 24.2874H55.1511C55.9487 24.2874 56.5678 24.9065 56.5678 25.7042V28.5376H48.0675V25.7042C48.0675 24.9065 48.6881 24.2874 49.4843 24.2874ZM48.0675 29.9543H56.5678V51.4077L53.8704 52.3172L51.1248 49.9739C51.0253 49.8875 50.9036 49.8306 50.7734 49.8096C50.6433 49.7885 50.5098 49.8043 50.3881 49.8549L48.0675 50.8396V29.9543ZM49.4843 31.371V48.3716H50.901V31.371H49.4843ZM50.5383 51.3354L53.2584 53.6588C53.3519 53.7381 53.4643 53.7918 53.5847 53.8147C53.7052 53.8375 53.8295 53.8287 53.9455 53.7892L55.8737 53.1375L52.3177 60.248L48.3311 52.2719L50.5383 51.3354Z" fill="white"/>
</g>
<defs>
<clipPath id="clip0_94_237">
<rect width="85" height="85" fill="white" transform="translate(0.194824)"/>
</clipPath>
</defs>
</svg>
