<svg width="85" height="85" viewBox="0 0 85 85" fill="none" xmlns="http://www.w3.org/2000/svg">
<path d="M57.9385 43.3499C57.0231 43.3499 56.3039 44.0854 56.3039 44.9845V48.5152H67.3866V44.9845C67.3866 44.0854 66.651 43.3499 65.752 43.3499H57.9385ZM29.7054 67.5814C30.8505 68.2205 32.1728 68.4685 33.4717 68.2879C34.7705 68.1073 35.975 67.5078 36.9022 66.5806C37.8295 65.6533 38.4289 64.4489 38.6095 63.15C38.7902 61.8512 38.5421 60.5289 37.903 59.3838L29.7054 67.5814ZM32.6477 56.3074C31.5979 56.3084 30.5665 56.5836 29.6558 57.1059C28.745 57.6282 27.9866 58.3793 27.4555 59.285C26.9245 60.1906 26.6393 61.2193 26.6283 62.2691C26.6172 63.3189 26.8806 64.3534 27.3925 65.27L35.5901 57.0724C34.6915 56.5684 33.678 56.3048 32.6477 56.3074Z" fill="#A1E3F9"/>
<path d="M66.8148 24.5029C66.8148 28.8674 63.2677 32.4145 58.9033 32.4145C56.1081 32.4145 53.6235 30.976 52.2177 28.7202C51.2696 29.4885 50.1254 30.0279 48.9321 30.2895C48.4753 29.7065 47.8924 29.2345 47.2271 28.9089C46.5618 28.5834 45.8314 28.4127 45.0908 28.4097H22.01C22.9581 26.8568 24.3639 25.6308 26.0639 24.9279C25.3119 23.6529 24.9033 22.1818 24.9033 20.6616C24.9033 15.9539 28.7283 12.1126 33.4523 12.1126C34.4331 12.1126 35.3975 12.2924 36.3129 12.6193C36.9207 11.0008 38.0093 9.60713 39.4323 8.62534C40.8553 7.64355 42.5446 7.12069 44.2735 7.12698C45.4014 7.12698 46.4966 7.33948 47.51 7.76448C48.4754 6.38219 49.7589 5.25226 51.2525 4.46993C52.746 3.68761 54.4057 3.27582 56.0917 3.26929C61.8619 3.26929 66.5696 7.97698 66.5696 13.7472C66.5696 15.7577 65.9812 17.7029 64.9023 19.3866C66.1446 20.8087 66.8148 22.6068 66.8148 24.5029ZM72.8792 53.4193V80.0962C72.8792 81.0116 72.16 81.7308 71.2446 81.7308H56.1408C56.4479 80.8945 56.5213 79.9904 56.3533 79.1154L50.9427 52.7491C51.2042 52.177 51.7764 51.7847 52.4302 51.7847H71.2446C72.16 51.7847 72.8792 52.5039 72.8792 53.4193Z" fill="#146ABB"/>
<path d="M46.7255 33.3134C46.7255 32.4144 46.0062 31.6788 45.0909 31.6788H20.1957C19.2966 31.6788 18.5611 32.4144 18.5611 33.3134V48.4336L12.1534 79.7692C12.0553 80.2596 12.1861 80.75 12.4966 81.1423C12.7909 81.5182 13.2649 81.7308 13.7553 81.7308H51.5476C52.038 81.7308 52.4957 81.5182 52.8062 81.1423C53.1168 80.75 53.2476 80.2596 53.1495 79.7692L46.7255 48.4336V33.3134ZM32.6482 71.6141C31.4281 71.6172 30.2196 71.3786 29.0923 70.912C27.965 70.4454 26.9413 69.7601 26.0803 68.8958L26.0737 68.8876C25.2107 68.0272 24.5266 67.0044 24.0609 65.8782C23.5952 64.7521 23.3571 63.5449 23.3603 62.3262C23.3629 59.8637 24.3423 57.5028 26.0835 55.7616C27.8248 54.0203 30.1857 53.0409 32.6482 53.0383C35.1295 53.0383 37.4621 54.0028 39.2161 55.7584C40.97 57.5139 41.9361 59.8449 41.9361 62.3262C41.9335 64.7887 40.9541 67.1496 39.2128 68.8909C37.4716 70.6321 35.1107 71.6115 32.6482 71.6141Z" fill="#A1E3F9"/>
</svg>
