<svg width="40" height="40" viewBox="0 0 40 40" fill="none" xmlns="http://www.w3.org/2000/svg">
<circle cx="20" cy="20" r="18.5" stroke="white" stroke-width="3"/>
<g clip-path="url(#clip0_214_2)">
<path d="M20 8C13.374 8 8 13.3745 8 20C8 26.6265 13.374 32 20 32C26.626 32 32 26.6265 32 20C32 13.3745 26.626 8 20 8ZM20 8.75C26.212 8.75 31.25 13.7885 31.25 20C31.25 26.212 26.212 31.25 20 31.25C13.788 31.25 8.75 26.212 8.75 20C8.75 13.7885 13.788 8.75 20 8.75Z" fill="#F2F9FF"/>
<path d="M20 10.125C14.5475 10.125 10.125 14.548 10.125 20C10.125 25.453 14.5475 29.875 20 29.875C25.4525 29.875 29.875 25.453 29.875 20C29.875 14.548 25.4525 10.125 20 10.125Z" fill="#A1E3F9"/>
<path d="M20 10.125C14.5475 10.125 10.125 14.548 10.125 20C10.1236 21.2982 10.379 22.5838 10.8766 23.7829C11.3741 24.9819 12.1039 26.0707 13.024 26.9865L26.9865 13.0245C26.0707 12.1044 24.9819 11.3746 23.7829 10.877C22.5838 10.3795 21.2982 10.1236 20 10.125Z" fill="#146ABB"/>
<path d="M15.72 14.1046C15.667 14.1046 15.6161 14.1257 15.5786 14.1632C15.5411 14.2007 15.52 14.2516 15.52 14.3046V25.105C15.52 25.158 15.5411 25.2089 15.5786 25.2464C15.6161 25.2839 15.667 25.305 15.72 25.305H18.9201C18.9732 25.305 19.0241 25.2839 19.0616 25.2464C19.0991 25.2089 19.1201 25.158 19.1201 25.105V14.3046C19.1201 14.2516 19.0991 14.2007 19.0616 14.1632C19.0241 14.1257 18.9732 14.1046 18.9201 14.1046H15.72ZM21.917 14.1046C21.477 14.1046 21.117 14.4646 21.117 14.9046V15.8719C21.1134 15.8936 21.1134 15.9158 21.117 15.9375V22.3049C21.1171 22.3359 21.1243 22.3664 21.1382 22.3941L22.5383 25.1942C22.5549 25.2274 22.5804 25.2553 22.612 25.2748C22.6436 25.2943 22.68 25.3046 22.7171 25.3046C22.7542 25.3046 22.7906 25.2943 22.8221 25.2748C22.8537 25.2553 22.8793 25.2274 22.8959 25.1942L24.2959 22.3941C24.3109 22.3644 24.3182 22.3314 24.3171 22.2981V15.9355C24.3206 15.9143 24.3206 15.8927 24.3171 15.8715V14.9046C24.3171 14.4646 23.9571 14.1046 23.5171 14.1046H21.917ZM15.92 14.5046H18.7201V24.905H15.92V24.105H17.1201V23.705H15.92V22.9049H17.5201V22.5049H15.92V21.7049H17.1201V21.3049H15.92V20.5048H17.5201V20.1048H15.92V19.3048H17.1201V18.9048H15.92V18.1048H17.5201V17.7047H15.92V16.9047H17.1201V16.5047H15.92V15.7047H17.5201V15.3047H15.92V14.5046ZM21.917 14.5046H23.5171C23.7423 14.5046 23.9171 14.6794 23.9171 14.9046V15.7047H21.517V14.9046C21.517 14.6794 21.6922 14.5046 21.917 14.5046ZM21.517 16.1047H23.9171V22.1621L23.1555 22.4189L22.3803 21.7573C22.3522 21.7329 22.3178 21.7168 22.281 21.7109C22.2443 21.7049 22.2066 21.7094 22.1723 21.7237L21.517 22.0017V16.1047ZM21.917 16.5047V21.3049H22.3171V16.5047H21.917ZM22.2147 22.1417L22.9827 22.7977C23.0091 22.8201 23.0408 22.8353 23.0748 22.8417C23.1088 22.8482 23.1439 22.8457 23.1767 22.8345L23.7211 22.6505L22.7171 24.6582L21.5914 22.4061L22.2147 22.1417Z" fill="white"/>
</g>
<defs>
<clipPath id="clip0_214_2">
<rect width="24" height="24" fill="white" transform="translate(8 8)"/>
</clipPath>
</defs>
</svg>
