<svg width="40" height="40" viewBox="0 0 40 40" fill="none" xmlns="http://www.w3.org/2000/svg">
<circle cx="20" cy="20" r="18.5" stroke="white" stroke-width="3"/>
<g clip-path="url(#clip0_214_3)">
<mask id="mask0_214_3" style="mask-type:luminance" maskUnits="userSpaceOnUse" x="8" y="8" width="24" height="24">
<path d="M8.02246 32V8.01501H32V32H8.02246Z" fill="white"/>
</mask>
<g mask="url(#mask0_214_3)">
<path fill-rule="evenodd" clip-rule="evenodd" d="M32 20C32 26.6274 26.6274 32 20 32C13.3726 32 8 26.6274 8 20C8 13.3726 13.3726 8 20 8C26.6274 8 32 13.3726 32 20Z" fill="#73BBA3"/>
</g>
<path fill-rule="evenodd" clip-rule="evenodd" d="M25.6514 27.9016C25.4544 27.902 25.2593 27.8633 25.0773 27.7879C24.8952 27.7124 24.73 27.6017 24.5909 27.4621L19.9998 22.8714L20.3748 22.4964L24.5909 26.7125C24.73 26.852 24.8953 26.9626 25.0773 27.0379C25.2593 27.1133 25.4544 27.1519 25.6514 27.1516C25.9841 27.152 26.3074 27.0416 26.5705 26.8379C26.8335 26.6342 27.0213 26.3488 27.1042 26.0266C27.1614 26.2483 27.1672 26.4802 27.1209 26.7044C27.0747 26.9287 26.9778 27.1393 26.8375 27.3203C26.6973 27.5013 26.5175 27.6478 26.3119 27.7486C26.1063 27.8493 25.8804 27.9017 25.6514 27.9016ZM18.4053 20.2231L15.8793 17.7283L15.8767 17.7313L13.6601 16.5898L12.5186 14.3731L13.5937 13.298L15.8103 14.4395L16.1636 15.125L15.9989 14.9626L14.8987 16.0096L18.7826 19.8459L18.4053 20.2231Z" fill="#629986"/>
<path fill-rule="evenodd" clip-rule="evenodd" d="M20.9372 21.9736L14.8989 16.0096L15.9992 14.9626L22.0374 20.9266L20.9372 21.9736Z" fill="#4C5665"/>
<path fill-rule="evenodd" clip-rule="evenodd" d="M26.7124 26.7125C26.5731 26.8518 26.4078 26.9623 26.2258 27.0377C26.0438 27.1131 25.8487 27.1519 25.6517 27.1519C25.4547 27.1519 25.2597 27.1131 25.0777 27.0377C24.8957 26.9623 24.7303 26.8518 24.591 26.7125L19.2878 21.4089C19.1484 21.2697 19.0378 21.1044 18.9624 20.9224C18.887 20.7404 18.8481 20.5454 18.8481 20.3484C18.8481 20.1514 18.887 19.9563 18.9624 19.7744C19.0378 19.5924 19.1484 19.4271 19.2878 19.2879C19.427 19.1485 19.5923 19.0379 19.7743 18.9625C19.9563 18.8871 20.1513 18.8482 20.3483 18.8482C20.5453 18.8482 20.7403 18.8871 20.9223 18.9625C21.1043 19.0379 21.2696 19.1485 21.4088 19.2879L26.7124 24.5911C26.8517 24.7304 26.9622 24.8958 27.0376 25.0778C27.113 25.2598 27.1518 25.4548 27.1518 25.6518C27.1518 25.8488 27.113 26.0439 27.0376 26.2259C26.9622 26.4079 26.8517 26.5732 26.7124 26.7125Z" fill="#F0CB83"/>
<path fill-rule="evenodd" clip-rule="evenodd" d="M15.5 29C15.0318 28.9996 14.5678 28.911 14.1324 28.739L16.5605 26.3105C16.7038 26.1721 16.818 26.0066 16.8967 25.8236C16.9753 25.6406 17.0166 25.4438 17.0184 25.2446C17.0201 25.0455 16.9822 24.8479 16.9067 24.6636C16.8313 24.4792 16.7199 24.3118 16.5791 24.1709C16.4383 24.0301 16.2708 23.9187 16.0864 23.8433C15.9021 23.7679 15.7046 23.7299 15.5054 23.7316C15.3062 23.7334 15.1094 23.7748 14.9264 23.8534C14.7434 23.932 14.5779 24.0463 14.4395 24.1895L12.011 26.6176C11.839 26.1822 11.7504 25.7182 11.75 25.25C11.75 23.1789 13.4289 21.5 15.5 21.5C15.983 21.5 16.4435 21.5945 16.8676 21.761L18.4055 20.2231L18.8904 20.702L18.899 20.7361C18.776 21.23 18.9016 21.773 19.2879 22.1589L20 22.8714L18.989 23.8824C19.161 24.3179 19.2496 24.7818 19.25 25.25C19.25 27.3211 17.5711 29 15.5 29Z" fill="#629986"/>
<path fill-rule="evenodd" clip-rule="evenodd" d="M19.9998 22.8714L19.2876 22.1589C18.9014 21.773 18.7758 21.23 18.8988 20.7361C18.9666 20.9908 19.1008 21.223 19.2876 21.4089L20.3748 22.4964L19.9998 22.8714ZM18.8901 20.702L18.4053 20.2231L18.7825 19.8459L18.8988 19.9606C18.8343 20.2032 18.8313 20.458 18.8901 20.702Z" fill="#568071"/>
<path fill-rule="evenodd" clip-rule="evenodd" d="M22.4964 20.375L21.4089 19.2879C21.2699 19.1483 21.1046 19.0376 20.9226 18.9621C20.7406 18.8867 20.5455 18.848 20.3484 18.8484C20.2243 18.8484 20.1006 18.8638 19.9798 18.8941L19.8564 18.7723L21.0111 17.6176C20.839 17.1822 20.7505 16.7182 20.7501 16.25C20.7501 14.1789 22.4289 12.5 24.5001 12.5C24.9834 12.5 25.4436 12.5945 25.8677 12.761L23.4396 15.1895C23.2963 15.3279 23.182 15.4934 23.1034 15.6764C23.0248 15.8594 22.9834 16.0562 22.9817 16.2554C22.98 16.4546 23.0179 16.6521 23.0933 16.8364C23.1688 17.0208 23.2801 17.1883 23.421 17.3291C23.5618 17.4699 23.7293 17.5813 23.9136 17.6567C24.098 17.7322 24.2955 17.7701 24.4947 17.7684C24.6938 17.7666 24.8907 17.7253 25.0737 17.6467C25.2567 17.568 25.4222 17.4538 25.5606 17.3105L27.9891 14.8824C28.1611 15.3178 28.2496 15.7818 28.2501 16.25C28.2501 18.3211 26.5712 20 24.5001 20C24.0319 19.9996 23.5679 19.911 23.1324 19.739L22.4964 20.375Z" fill="#629986"/>
<path fill-rule="evenodd" clip-rule="evenodd" d="M18.899 19.9607L18.7827 19.8459L19.0771 19.5515C18.9977 19.6783 18.9377 19.8162 18.899 19.9607ZM19.5515 19.0772L19.8563 18.7723L19.9797 18.8942C19.8283 18.9324 19.6838 18.9942 19.5515 19.0772Z" fill="#414A55"/>
<path fill-rule="evenodd" clip-rule="evenodd" d="M20.3749 22.4964L19.2877 21.4089C19.0924 21.2145 18.9549 20.9698 18.8902 20.702C18.8432 20.5075 18.8355 20.3055 18.8676 20.1079C18.8996 19.9104 18.9708 19.7212 19.077 19.5515L19.5514 19.0771C19.7901 18.9273 20.0663 18.848 20.3482 18.8484C20.7322 18.8484 21.1159 18.9946 21.4087 19.2879L22.4962 20.375L20.3749 22.4964Z" fill="#C1A56E"/>
<path fill-rule="evenodd" clip-rule="evenodd" d="M23.333 18.7884L18.7884 23.333L16.667 21.2116L21.2116 16.667L23.333 18.7884Z" fill="#FFFFFE"/>
<path fill-rule="evenodd" clip-rule="evenodd" d="M15.8767 16.9813L13.6601 15.8398L12.5186 13.6231L13.5937 12.548L15.8103 13.6895L16.9518 15.9061L15.8767 16.9813Z" fill="#4C5665"/>
<path fill-rule="evenodd" clip-rule="evenodd" d="M25.5605 16.5605C25.4221 16.7038 25.2566 16.818 25.0736 16.8967C24.8906 16.9753 24.6938 17.0166 24.4946 17.0184C24.2954 17.0201 24.0979 16.9822 23.9136 16.9067C23.7292 16.8313 23.5617 16.7199 23.4209 16.5791C23.2801 16.4383 23.1687 16.2708 23.0933 16.0864C23.0178 15.9021 22.9799 15.7046 22.9816 15.5054C22.9834 15.3062 23.0247 15.1094 23.1033 14.9264C23.182 14.7434 23.2962 14.5779 23.4395 14.4395L25.8676 12.011C25.4322 11.839 24.9682 11.7504 24.5 11.75C22.4289 11.75 20.75 13.4289 20.75 15.5C20.75 17.5711 22.4289 19.25 24.5 19.25C26.5711 19.25 28.25 17.5711 28.25 15.5C28.2495 15.0318 28.161 14.5678 27.989 14.1324L25.5605 16.5605ZM14.4395 23.4395C14.5779 23.2962 14.7434 23.182 14.9264 23.1033C15.1094 23.0247 15.3062 22.9834 15.5054 22.9816C15.7046 22.9799 15.9021 23.0178 16.0864 23.0933C16.2708 23.1687 16.4383 23.2801 16.5791 23.4209C16.7199 23.5617 16.8313 23.7292 16.9067 23.9136C16.9822 24.0979 17.0201 24.2954 17.0184 24.4946C17.0166 24.6938 16.9753 24.8906 16.8967 25.0736C16.818 25.2566 16.7038 25.4221 16.5605 25.5605L14.1324 27.989C14.5678 28.161 15.0318 28.2495 15.5 28.25C17.5711 28.25 19.25 26.5711 19.25 24.5C19.25 22.4289 17.5711 20.75 15.5 20.75C13.4289 20.75 11.75 22.4289 11.75 24.5C11.75 24.9834 11.8445 25.4435 12.011 25.8676L14.4395 23.4395Z" fill="#FFFFFE"/>
</g>
<defs>
<clipPath id="clip0_214_3">
<rect width="24" height="24" fill="white" transform="translate(8 8)"/>
</clipPath>
</defs>
</svg>
