<svg width="80" height="80" viewBox="0 0 80 80" fill="none" xmlns="http://www.w3.org/2000/svg">
<path d="M79.5 61.0781C79.4062 61.7188 79.25 62.3438 79.0156 62.8281C78.5938 63.6875 78.1875 63.7656 76.5938 63.6875C74.5312 63.5938 71.5781 63.6875 68.4531 63.8125C68.4531 64.6719 68.4844 65.0781 68.4844 65.0781C68.6875 67.4375 69.75 67.5156 70.1719 67.5156H76.8906C77.4844 67.5156 78.0312 67.5156 78.4531 67.2344C79 66.875 79.2344 65.8281 79.4375 64C79.4688 63.7344 79.4844 63.3906 79.5 62.9844V62.9688C79.5 62.8438 79.5156 62.6875 79.5156 62.5156V62.3438C79.5156 61.9219 79.5156 61.4531 79.5 61.0781ZM0.46875 61.0781C0.5625 61.7188 0.71875 62.3438 0.953125 62.8281C1.375 63.6875 1.78125 63.7656 3.375 63.6875C5.4375 63.5938 8.39062 63.6875 11.5156 63.8125C11.5156 64.6719 11.4844 65.0781 11.4844 65.0781C11.2812 67.4375 10.2188 67.5156 9.79688 67.5156H3.07813C2.48438 67.5156 1.98438 67.5156 1.51562 67.2344C0.953125 66.9062 0.734375 65.8281 0.53125 64C0.5 63.7344 0.484375 63.3906 0.46875 62.9844V62.9688C0.46875 62.8438 0.453125 62.6875 0.453125 62.5156V62.3438C0.46875 61.9219 0.46875 61.4531 0.46875 61.0781Z" fill="white"/>
<path d="M80 46.3438C80 41.5469 79.375 36.8594 79.125 36.3438C78.9375 35.9688 77.7344 34.9844 75 33.125C72.2344 31.2344 72.2969 31.5156 71.7969 30.2812C72.25 30.1406 72.6875 29.875 72.9531 29.8438C73.5469 29.7812 73.5781 30.3438 74.8125 30.3438C76.0469 30.3438 78.7188 30.0156 79.2656 29.4688C79.8125 28.9219 79.9844 28.7344 79.9844 28.25C79.9844 27.7656 79.7031 26.7656 79.1719 26.1719C78.6406 25.5781 76.375 25.2812 75.0469 25.1094C73.7188 24.9375 73.5312 25.1094 73.1875 25.3281C72.6406 25.6719 72.6094 28.8125 72.6094 28.8125L71.3125 28.8438C70.4688 26.7656 69.2969 22.5781 67.4688 19.2813C65.4688 15.6875 63.375 14.5625 62.5 14.2813C61.6406 14.0156 60.8594 13.8281 55 13.2344C49.0156 12.6094 44.25 12.5312 40 12.5312C35.75 12.5312 30.9844 12.625 25 13.2344C19.1406 13.8438 18.3594 14.0156 17.5 14.2813C16.6406 14.5469 14.5312 15.6875 12.5312 19.2813C10.7031 22.5781 9.53125 26.7656 8.6875 28.8438L7.39062 28.8125C7.39062 28.8125 7.375 25.6719 6.8125 25.3281C6.46875 25.1094 6.28125 24.9219 4.95312 25.1094C3.625 25.2969 1.35938 25.5781 0.828125 26.1719C0.296875 26.7656 0.015625 27.7656 0.015625 28.25C0.015625 28.7344 0.1875 28.9375 0.734375 29.4688C1.28125 30.0156 3.95312 30.3438 5.1875 30.3438C6.42188 30.3438 6.45312 29.7812 7.04688 29.8438C7.3125 29.875 7.76562 30.1406 8.20312 30.2812C7.6875 31.5156 7.76562 31.2344 5 33.125C2.26562 35 1.04688 35.9688 0.875 36.3438C0.625 36.8594 0 41.5469 0 46.3438C0 51.1406 0.34375 55.4531 0.34375 56.9844C0.34375 57.625 0.34375 58.75 0.484375 59.8281C0.578125 60.4688 0.71875 61.0938 0.96875 61.5781C1.39062 62.4375 1.78125 62.5156 3.39062 62.4375C5.45312 62.3438 8.4375 62.4375 11.5156 62.5625C13.5781 62.6406 15.6875 62.7188 17.5625 62.7656C22.25 62.8594 20.875 62.0781 22.875 62.1094C24.875 62.1406 32.7656 62.4687 39.9844 62.4687C47.2031 62.4687 55.1094 62.1406 57.0938 62.1094C59.0938 62.0781 57.7188 62.8594 62.4062 62.7656C64.2812 62.7344 66.3906 62.6406 68.4531 62.5625C71.5312 62.4531 74.5312 62.3438 76.5781 62.4375C78.1875 62.5156 78.5781 62.4375 79 61.5781C79.2344 61.0938 79.3906 60.4688 79.4844 59.8281C79.6406 58.75 79.625 57.625 79.625 56.9844C79.6562 55.4688 80 51.1406 80 46.3438ZM13.4688 22.6875C14.2188 20.9375 16.4688 17.4219 17.5625 16.7969C17.8281 16.6406 20.1562 15.9063 25.9844 15.5156C31.3438 15.1563 37.2656 15.0156 40.0156 15.0156C42.7656 15.0156 48.6875 15.1563 54.0469 15.5156C59.8594 15.9063 62.2187 16.625 62.4688 16.7969C63.875 17.7656 65.8125 20.9375 66.5625 22.6875C67.3125 24.4375 68.3125 27.875 68.125 28.3438C67.9375 28.8125 68.3125 29.0469 65.7812 28.8438C63.2656 28.6563 47.4688 28.4531 40.0312 28.4531C32.6094 28.4531 16.8125 28.6563 14.2812 28.8438C11.75 29.0313 12.125 28.8125 11.9375 28.3438C11.7188 27.875 12.7187 24.4531 13.4688 22.6875ZM19.2188 42.25C18.0938 42.5312 17.4219 43.1406 16.0156 43.125C14.6094 43.125 10.8125 42.4844 10 42.4531C9.1875 42.4219 8.46875 43 8.04688 43.1094C7.625 43.2188 6.79688 42.9219 5.54688 42.5313C4.29688 42.1406 3.5625 42.25 3.15625 40.5469C2.73438 38.8594 3.15625 36.4375 3.15625 36.4375C5.85938 36.3125 8.46875 36.5625 13.3594 37.9375C18.25 39.3125 20.9688 41.9531 20.9688 41.9531C20.9688 41.9531 20.3438 41.9688 19.2188 42.25ZM55.9688 54.5625C53.7344 54.8594 44.375 54.9375 40 54.9375C35.625 54.9375 26.2656 54.8438 24.0312 54.5625C21.75 54.2656 18.7812 51.5312 20.8281 49.3594C23.5938 46.4062 23.0781 46.5 29.3594 45.6875C34.7969 44.9844 38.9219 44.9531 40 44.9531C41.0625 44.9531 45.2031 45 50.6406 45.6875C56.9219 46.5 56.4062 46.4062 59.1719 49.3594C61.2188 51.5312 58.25 54.2656 55.9688 54.5625ZM76.8438 40.5625C76.4219 42.25 75.7031 42.1562 74.4531 42.5469C73.2031 42.9375 72.375 43.2188 71.9531 43.125C71.5312 43.0312 70.8125 42.4531 70 42.4687C69.1875 42.5 65.3906 43.1406 63.9844 43.1406C62.5781 43.1406 61.9062 42.5469 60.7812 42.2656C59.6562 41.9844 59.0312 41.9844 59.0312 41.9844C59.0312 41.9844 61.7344 39.3281 66.6406 37.9688C71.5312 36.5938 74.1406 36.3438 76.8438 36.4688C76.8438 36.4375 77.2656 38.8594 76.8438 40.5625Z" fill="white"/>
</svg>
