<svg width="80" height="80" viewBox="0 0 80 80" fill="none" xmlns="http://www.w3.org/2000/svg">
<path d="M30 44.1663L10 47.5V40L30 30.8337V44.1663ZM50 30.8337V44.1663L70 47.5V40L50 30.8337ZM53.75 63.75V70L40 66.25L26.25 70V63.75L32.5 59.7725V17.5C32.5 15.5109 33.2902 13.6032 34.6967 12.1967C36.1032 10.7902 38.0109 10 40 10C41.9891 10 43.8968 10.7902 45.3033 12.1967C46.7098 13.6032 47.5 15.5109 47.5 17.5V59.7725L53.75 63.75ZM45 17.5C45 16.1739 44.4732 14.9021 43.5355 13.9645C42.5979 13.0268 41.3261 12.5 40 12.5C38.6739 12.5 37.4021 13.0268 36.4645 13.9645C35.5268 14.9021 35 16.1739 35 17.5V26.25H37.5V17.5C37.5 16.837 37.7634 16.2011 38.2322 15.7322C38.7011 15.2634 39.337 15 40 15C40.663 15 41.2989 15.2634 41.7678 15.7322C42.2366 16.2011 42.5 16.837 42.5 17.5H45Z" fill="white"/>
</svg>
