<svg width="80" height="80" viewBox="0 0 80 80" fill="none" xmlns="http://www.w3.org/2000/svg">
<path d="M66.6667 69.9999H49.3333C49.6667 69.3333 49.6667 68.6666 49.6667 67.9999C59.6667 63.9999 66.3333 54.3333 66.3333 43.3333C66.3333 36.6666 63.6667 30.3333 59.3333 25.3333L61.3333 23.3333C61.6667 22.9999 62 22.6666 62 21.9999L64.3333 14.9999C64.6667 13.6666 64.3333 12.3332 63.6667 11.6666L56.6667 4.66658C55.6667 3.66658 54.3333 3.33325 53.3333 3.99992L46.6667 5.99992C46.3333 5.99992 45.6667 6.33325 45.3333 6.66658L24 27.9999C22.6667 29.3332 22.6667 31.3333 24 32.6666L19.3333 37.3332C18 38.6666 18 40.6666 19.3333 41.9999L26.3333 48.9999C27.6667 50.3333 29.6667 50.3333 31 48.9999L35.6667 44.3333C37 45.6666 39 45.6666 40.3333 44.3333L55 29.9999C58.3333 33.6666 60 38.3333 60 43.3333C60 50.9999 55.3333 57.9999 48.3333 61.3333C45.3333 56.6666 39.3333 54.9999 34.6667 57.9999C33.3333 58.9999 32 59.9999 31.3333 61.6666C30 60.9999 28.6667 60.6666 27.6667 59.6666C29 59.3333 30 57.9999 30 56.6666C30 54.6666 28.6667 53.3333 26.6667 53.3333H13.3333C11.3333 53.3333 10 54.6666 10 56.6666C10 58.6666 11.3333 59.9999 13.3333 59.9999H17.6667C21 63.6666 25.3333 66.6666 30 68.3333C30 68.9999 30.3333 69.6666 30.3333 69.9999H13.3333C11.3333 69.9999 10 71.3333 10 73.3333C10 75.3333 11.3333 76.6666 13.3333 76.6666H66.6667C68.6667 76.6666 70 75.3333 70 73.3333C70 71.6666 68.6667 69.9999 66.6667 69.9999ZM28.6667 41.9999L26.3333 39.6666L28.6667 37.3332L31 39.6666L28.6667 41.9999ZM40 69.9999C38 69.9999 36.6667 68.6666 36.6667 66.6666C36.6667 64.6666 38 63.3333 40 63.3333C42 63.3333 43.3333 64.6666 43.3333 66.6666C43.3333 68.6666 42 69.9999 40 69.9999Z" fill="white"/>
</svg>
