<svg width="80" height="80" viewBox="0 0 80 80" fill="none" xmlns="http://www.w3.org/2000/svg">
<path fill-rule="evenodd" clip-rule="evenodd" d="M62.5001 58.3334C59.2784 58.3334 56.6667 55.7217 56.6667 52.5001C56.6667 49.2784 59.2784 46.6667 62.5001 46.6667C65.7217 46.6667 68.3334 49.2784 68.3334 52.5001C68.3334 55.7217 65.7217 58.3334 62.5001 58.3334ZM62.5001 63.3334C56.5169 63.3334 51.6667 58.4832 51.6667 52.5001C51.6667 46.5169 56.5169 41.6667 62.5001 41.6667C68.4832 41.6667 73.3334 46.5169 73.3334 52.5001C73.3334 58.4832 68.4832 63.3334 62.5001 63.3334Z" fill="white"/>
<path fill-rule="evenodd" clip-rule="evenodd" d="M48.1788 17.6326C47.9058 17.0436 47.3158 16.6667 46.6666 16.6667H38.3333V20.0001H45.6021L60.9878 53.2009C61.3748 54.0361 62.3656 54.3993 63.2008 54.0122C64.036 53.6252 64.3991 52.6344 64.0121 51.7993L48.1788 17.6326ZM17.5 58.3334C14.2783 58.3334 11.6666 55.7217 11.6666 52.5001C11.6666 49.2784 14.2783 46.6667 17.5 46.6667C20.7216 46.6667 23.3333 49.2784 23.3333 52.5001C23.3333 55.7217 20.7216 58.3334 17.5 58.3334ZM17.5 63.3334C11.5169 63.3334 6.66663 58.4832 6.66663 52.5001C6.66663 46.5169 11.5169 41.6667 17.5 41.6667C23.4831 41.6667 28.3333 46.5169 28.3333 52.5001C28.3333 58.4832 23.4831 63.3334 17.5 63.3334Z" fill="white"/>
<path fill-rule="evenodd" clip-rule="evenodd" d="M35.8333 52.4999C35.8333 53.4204 35.0871 54.1666 34.1666 54.1666H17.5C16.5796 54.1666 15.8334 53.4204 15.8334 52.4999C15.8334 51.5794 16.5796 50.8333 17.5 50.8333H34.1666C35.0871 50.8333 35.8333 51.5794 35.8333 52.4999Z" fill="white"/>
<path d="M46.7546 39.824L48.4213 36.4907C48.8905 35.5523 48.8905 34.4477 48.4213 33.5093L46.7546 30.176C46.19 29.0467 45.0358 28.3333 43.7731 28.3333H38.3045C36.852 28.3333 35.4091 28.5707 34.0331 29.036L28.7916 30.8087C27.7331 31.1665 27.3198 32.4442 27.968 33.3543L33.3903 40.967C33.703 41.406 34.2088 41.6667 34.7478 41.6667H43.7731C45.0358 41.6667 46.19 40.9533 46.7546 39.824ZM8.33329 31.6667H21.8273C22.3395 31.6667 22.8233 31.9023 23.1393 32.3055L27.9438 38.4388C28.399 39.0202 27.9295 39.8625 27.1956 39.781L8.14924 37.6647C7.30519 37.571 6.66663 36.8575 6.66663 36.0083V33.3333C6.66663 32.4128 7.41281 31.6667 8.33329 31.6667ZM46.6666 45H36.6666C34.8256 45 33.3333 46.4923 33.3333 48.3333V51.6667C33.3333 53.5077 34.8256 55 36.6666 55H43.3333C45.1743 55 46.6666 53.5077 46.6666 51.6667V45ZM55.515 25H62.0661C62.338 25 62.5928 25.1327 62.7488 25.3555L67.4155 32.0222C67.8021 32.5745 67.407 33.3333 66.7328 33.3333H58.8483C58.5326 33.3333 58.2441 33.155 58.103 32.8727L54.7696 26.206C54.4926 25.652 54.8955 25 55.515 25Z" fill="white"/>
</svg>
