<svg width="80" height="80" viewBox="0 0 80 80" fill="none" xmlns="http://www.w3.org/2000/svg">
<path d="M70 37.4901H66.7712C66.0889 34.5458 64.9426 31.7723 63.3533 29.2223L65.6274 26.9493C67.0874 25.4869 67.0874 23.1078 65.6262 21.6454L62.0899 18.1102C62.3151 19.3644 62.4484 20.6853 62.4763 22.0318L63.8574 23.413C64.3457 23.9 64.3457 24.6947 63.8587 25.1818L62.0329 27.0067C61.7986 28.1469 61.4818 29.2643 61.077 30.3476C62.7561 32.9834 63.9324 35.8755 64.5325 38.9769C64.646 39.5653 65.1599 39.9901 65.7593 39.9901H70C70.6897 39.9901 71.25 40.5504 71.25 41.2401V46.2401C71.25 46.9298 70.6897 47.4901 70 47.4901H65.763C65.1636 47.4901 64.6484 47.9149 64.5361 48.5033C63.8916 51.8407 62.6111 54.945 60.7288 57.7306C60.3931 58.2262 60.4566 58.8903 60.8801 59.3139L63.8708 62.3046C64.3579 62.7917 64.3579 63.5851 63.8708 64.0722L60.3357 67.6073C59.8499 68.0956 59.054 68.0944 58.5681 67.6085L55.5786 64.619C55.155 64.1955 54.491 64.1332 53.9941 64.4677C51.2073 66.3549 48.1043 67.6378 44.773 68.2824C44.1846 68.3959 43.7598 68.9098 43.7598 69.5092V73.7499C43.7598 74.4396 43.1995 74.9999 42.5098 74.9999H37.5098C36.8201 74.9999 36.2598 74.4396 36.2598 73.7499V69.5129C36.2598 68.9135 35.835 68.3984 35.2466 68.286C31.9092 67.6415 28.8049 66.361 26.0193 64.4787C25.5266 64.1441 24.8608 64.2049 24.436 64.63L21.4453 67.6208C20.9583 68.1078 20.166 68.1103 19.6765 67.6208L16.1414 64.0856C15.6543 63.5985 15.6543 62.8051 16.1414 62.318L19.1309 59.3285C19.5544 58.9049 19.6179 58.2397 19.2822 57.7441C17.395 54.9572 16.1121 51.8542 15.4675 48.5229C15.354 47.9345 14.8401 47.5097 14.2407 47.5097H9.99999C9.31029 47.5097 8.74999 46.9494 8.74999 46.2597V41.2597C8.74999 40.57 9.31029 40.0097 9.99999 40.0097H14.2371C14.8364 40.0097 15.3516 39.5849 15.4639 38.9965C16.0651 35.8833 17.242 32.9845 18.9223 30.3464C18.5219 29.2744 18.208 28.1689 17.9744 27.0409L16.1279 25.1952C15.6409 24.707 15.6409 23.9147 16.1279 23.4264L17.5238 22.0306C17.5517 20.685 17.6849 19.3653 17.9402 18.0872C17.8955 18.1237 14.3603 21.6589 14.3603 21.6589C12.8979 23.1213 12.8979 25.5004 14.3603 26.9628L16.637 29.2382C15.0513 31.787 13.9062 34.5605 13.2239 37.5097H10C7.93213 37.5097 6.25 39.1918 6.25 41.2597V46.2597C6.25 48.3276 7.93213 50.0097 10 50.0097H13.2288C13.9111 52.954 15.0574 55.7275 16.6467 58.2763L14.3738 60.5505C12.9114 62.0129 12.9114 64.3908 14.3738 65.8532L17.9089 69.3883C19.3726 70.852 21.7517 70.8495 23.2129 69.3883L25.4883 67.113C28.0371 68.6986 30.8118 69.8437 33.7598 70.526V73.7499C33.7598 75.8178 35.4419 77.4999 37.5098 77.4999H42.5098C44.5776 77.4999 46.2598 75.8178 46.2598 73.7499V70.5212C49.2041 69.8388 51.9775 68.6925 54.5264 67.1032L56.8005 69.3774C58.2617 70.8361 60.6397 70.8373 62.1033 69.3761L65.6384 65.8398C67.1008 64.3774 67.1008 61.9994 65.6384 60.537L63.363 58.2616C64.9487 55.7128 66.0938 52.9394 66.7761 49.9901H70C72.0679 49.9901 73.75 48.308 73.75 46.2401V41.2401C73.75 39.1723 72.0679 37.4901 70 37.4901Z" fill="white"/>
<path d="M59.9999 22.5C59.9999 11.475 51.0249 2.5 39.9999 2.5C20.3309 2.65229 12.7047 27.8805 28.6374 38.95C27.0633 40.5228 27.1637 43.5297 28.8249 45C26.0146 47.5751 28.0246 52.5895 31.875 52.4999C31.8749 52.5 33.7499 52.5 33.7499 52.5C32.994 62.4612 47.0084 62.4549 46.2499 52.5H48.1249C51.9755 52.59 53.9849 47.5736 51.1749 45C52.8362 43.5297 52.9364 40.5227 51.3624 38.95C56.5749 35.3374 59.9999 29.3125 59.9999 22.5ZM48.1249 15.7875L51.3749 13.9125C52.8055 13.1249 54.0302 15.2404 52.6248 16.0875C52.1926 16.2673 49.2007 18.2509 48.7499 18.1251C47.5247 18.1697 47.0141 16.3841 48.1249 15.7875ZM34.9999 30C35.2031 23.3897 44.7982 23.3927 44.9999 30.0001C44.9999 30 44.9999 37.5 44.9999 37.5H34.9999V30ZM48.1249 40C50.5739 40.0378 50.6035 43.7059 48.1249 43.75H31.8749C29.4255 43.7372 29.4227 40.0034 31.875 40C31.8749 40 48.1249 40 48.1249 40ZM26.9249 14.375C27.2624 13.775 28.0249 13.575 28.6249 13.9125L31.8749 15.7875C32.4749 16.1375 32.6749 16.8999 32.3374 17.5C31.9771 18.1028 31.218 18.2965 30.6249 17.9625L27.3749 16.0875C26.7749 15.7375 26.5749 14.975 26.9249 14.375ZM24.9999 23.0625C24.9999 22.375 25.5624 21.8125 26.2499 21.8125H29.9999C30.6874 21.8125 31.2499 22.375 31.2499 23.0625C31.2499 23.7625 30.6874 24.3125 29.9999 24.3125H26.2499C25.5624 24.3125 24.9999 23.7625 24.9999 23.0625ZM28.6249 32.225C27.2005 33.0121 25.9665 30.9 27.375 30.0499C27.3749 30.05 30.6249 28.175 30.6249 28.175C32.0675 27.3896 33.2849 29.4929 31.8748 30.35C31.8749 30.35 28.6249 32.225 28.6249 32.225ZM48.1249 50H31.8749C29.4145 49.9621 29.406 46.2895 31.875 46.25C31.8749 46.25 48.1249 46.25 48.1249 46.25C50.5852 46.2878 50.5938 49.9603 48.1249 50ZM53.0749 31.7625C52.7366 32.366 51.9521 32.5595 51.3749 32.225L48.1249 30.35C47.5249 30 47.3249 29.2375 47.6624 28.6375C48.0123 28.0375 48.7749 27.8375 49.3749 28.175L52.6249 30.05C53.2249 30.4 53.4249 31.1625 53.0749 31.7625ZM49.9999 24.3125C48.359 24.2901 48.3555 21.8434 50 21.8125C49.9999 21.8125 53.7499 21.8125 53.7499 21.8125C55.3924 21.8432 55.3926 24.2899 53.7498 24.3125C53.7499 24.3125 49.9999 24.3125 49.9999 24.3125Z" fill="white"/>
</svg>
