<svg width="30" height="30" viewBox="0 0 30 30" fill="none" xmlns="http://www.w3.org/2000/svg">
<path fill-rule="evenodd" clip-rule="evenodd" d="M16.8375 6.83753C17.0133 6.66197 17.2516 6.56335 17.5 6.56335C17.7484 6.56335 17.9867 6.66197 18.1625 6.83753L25.6625 14.3375C25.8381 14.5133 25.9367 14.7516 25.9367 15C25.9367 15.2485 25.8381 15.4867 25.6625 15.6625L18.1625 23.1625C18.0767 23.2546 17.9732 23.3285 17.8582 23.3798C17.7432 23.431 17.619 23.4585 17.4932 23.4608C17.3673 23.463 17.2422 23.4398 17.1255 23.3927C17.0088 23.3455 16.9027 23.2754 16.8137 23.1863C16.7247 23.0973 16.6545 22.9913 16.6073 22.8745C16.5602 22.7578 16.537 22.6328 16.5393 22.5069C16.5415 22.381 16.569 22.2569 16.6203 22.1419C16.6715 22.0269 16.7454 21.9234 16.8375 21.8375L22.7375 15.9375H5C4.75136 15.9375 4.5129 15.8388 4.33709 15.6629C4.16127 15.4871 4.0625 15.2487 4.0625 15C4.0625 14.7514 4.16127 14.5129 4.33709 14.3371C4.5129 14.1613 4.75136 14.0625 5 14.0625H22.7375L16.8375 8.16253C16.6619 7.98675 16.5633 7.74847 16.5633 7.50003C16.5633 7.25159 16.6619 7.01331 16.8375 6.83753Z" fill="white"/>
</svg>
