<svg width="80" height="80" viewBox="0 0 80 80" fill="none" xmlns="http://www.w3.org/2000/svg">
<path d="M17.4799 12.4799C17.3158 12.4825 17.1537 12.5174 17.0031 12.5827C16.8524 12.6479 16.7161 12.7422 16.6018 12.8601C16.4876 12.978 16.3977 13.1173 16.3374 13.27C16.277 13.4227 16.2473 13.5857 16.2499 13.7499V21.2499H13.7499V16.2449C13.7499 15.9134 13.6182 15.5954 13.3838 15.361C13.1494 15.1266 12.8314 14.9949 12.4999 14.9949C12.1684 14.9949 11.8504 15.1266 11.616 15.361C11.3816 15.5954 11.2499 15.9134 11.2499 16.2449V21.2499H9.99991V28.7499H4.99991V37.4999H24.9999V28.7499H19.9999V21.2499H18.7499V13.7499C18.7526 13.5824 18.7216 13.416 18.6587 13.2607C18.5959 13.1054 18.5024 12.9643 18.384 12.8459C18.2655 12.7274 18.1244 12.6339 17.9691 12.5711C17.8138 12.5082 17.6474 12.4772 17.4799 12.4799ZM42.4999 12.4999V24.9999H32.4999V37.4999H62.4999V24.9999H57.4999V12.4999H42.4999ZM46.2499 17.4999H48.7499V19.9999H46.2499V17.4999ZM51.2499 17.4999H53.7499V19.9999H51.2499V17.4999ZM36.2499 29.9999H38.7499V32.4999H36.2499V29.9999ZM41.2499 29.9999H43.7499V32.4999H41.2499V29.9999ZM51.2499 29.9999H53.7499V32.4999H51.2499V29.9999ZM56.2499 29.9999H58.7499V32.4999H56.2499V29.9999ZM3.53491 39.9849L7.04491 46.4449H22.3249C24.0149 46.4199 24.0149 48.9699 22.3249 48.9449H8.18241L13.1749 59.9324C11.4846 59.7598 9.88196 59.0958 8.56491 58.0224C7.27491 56.9574 5.68241 58.8974 6.97741 59.9549C8.68587 61.3491 10.7666 62.2103 12.9606 62.4312C15.1547 62.6521 17.3653 62.2231 19.3174 61.1974H21.6499C23.2587 62.0385 25.0471 62.4778 26.8624 62.4778C28.6778 62.4778 30.4662 62.0385 32.0749 61.1974H34.1349C35.7437 62.0385 37.5321 62.4778 39.3474 62.4778C41.1628 62.4778 42.9512 62.0385 44.5599 61.1974H46.6349C48.2437 62.0385 50.0321 62.4778 51.8474 62.4778C53.6628 62.4778 55.4512 62.0385 57.0599 61.1974H59.1349C61.0967 62.2283 63.3191 62.6572 65.5236 62.4304C67.7281 62.2035 69.8166 61.3311 71.5274 59.9224C71.7318 59.7577 71.8792 59.5327 71.9486 59.2795C72.0181 59.0263 72.006 58.7577 71.9141 58.5117C71.8223 58.2658 71.6553 58.055 71.4369 57.9093C71.2185 57.7636 70.9598 57.6903 70.6974 57.6999V57.6949C70.4159 57.7058 70.1463 57.8115 69.9324 57.9949C68.3484 59.3092 66.3506 60.0211 64.2924 60.0049L68.7499 50.1949H62.4999V45.1949H71.0199L73.9349 39.9849H3.53491ZM20.4549 62.6949C20.1743 62.7064 19.9057 62.8121 19.6924 62.9949C18.1296 64.2914 16.1642 65.0033 14.1336 65.0083C12.103 65.0133 10.1341 64.3112 8.56491 63.0224C7.27491 61.9574 5.68241 63.8974 6.97741 64.9549C10.8824 68.1549 16.3999 68.2974 20.4874 65.4699C22.3389 66.752 24.5337 67.4465 26.7856 67.463C29.0376 67.4795 31.2423 66.8172 33.1124 65.5624C34.9602 66.8012 37.1348 67.4623 39.3594 67.4614C41.5841 67.4605 43.7581 66.7977 45.6049 65.5574C47.4529 66.7989 49.6287 67.4619 51.8549 67.4619C54.0812 67.4619 56.257 66.7989 58.1049 65.5574C62.1999 68.3049 67.6674 68.1174 71.5299 64.9224C71.7346 64.7575 71.882 64.5324 71.9514 64.2789C72.0208 64.0255 72.0085 63.7566 71.9163 63.5105C71.8241 63.2644 71.6567 63.0536 71.4379 62.9081C71.2191 62.7626 70.96 62.6897 70.6974 62.6999V62.6949C70.4159 62.7058 70.1463 62.8115 69.9324 62.9949C68.4587 64.2132 66.625 64.9126 64.7143 64.9854C62.8036 65.0581 60.922 64.5001 59.3599 63.3974C59.2538 63.1816 59.0876 63.0011 58.8814 62.8774C58.6752 62.7536 58.4377 62.692 58.1974 62.6999V62.6949C58.1018 62.699 58.007 62.7141 57.9149 62.7399C57.7199 62.7553 57.5312 62.8162 57.364 62.9178C57.1969 63.0195 57.0559 63.1589 56.9524 63.3249C55.4875 64.3868 53.7275 64.9649 51.9182 64.9783C50.1089 64.9918 48.3405 64.4399 46.8599 63.3999C46.7541 63.1837 46.5881 63.0026 46.3819 62.8784C46.1757 62.7542 45.938 62.6923 45.6974 62.6999V62.6949C45.6018 62.699 45.507 62.7141 45.4149 62.7399C45.2199 62.7553 45.0312 62.8162 44.864 62.9178C44.6969 63.0195 44.5559 63.1589 44.4524 63.3249C42.9915 64.3834 41.2374 64.961 39.4334 64.9776C37.6294 64.9942 35.865 64.4489 34.3849 63.4174C34.2813 63.1971 34.1156 63.0119 33.9082 62.8844C33.7008 62.7569 33.4607 62.6928 33.2174 62.6999V62.6949C33.1235 62.6993 33.0304 62.7144 32.9399 62.7399C32.737 62.752 32.5401 62.8135 32.3663 62.9189C32.1924 63.0243 32.047 63.1705 31.9424 63.3449C30.3936 64.4617 28.521 65.0389 26.6122 64.9879C24.7035 64.9369 22.8643 64.2604 21.3774 63.0624C21.2562 62.942 21.1116 62.8477 20.9525 62.7853C20.7934 62.723 20.6232 62.6939 20.4524 62.6999V62.6949H20.4549Z" fill="white"/>
</svg>
