<svg width="80" height="80" viewBox="0 0 80 80" fill="none" xmlns="http://www.w3.org/2000/svg">
<path d="M28.025 53.2499L17.6875 49.2L20.075 56.3625L28.025 53.2499Z" fill="white"/>
<path d="M38.4751 61.6624L40.0251 60.8875L40.8876 58.2875L31.4625 54.5875L20.8626 58.7375L21.6125 60.9875L22.7626 61.5625C27.9876 61.9375 33.2376 61.9749 38.4751 61.6624ZM43.425 50.675C43.1376 50.5375 42.8625 50.4 42.5876 50.2375L34.8875 53.25L41.6875 55.9125L43.425 50.675ZM39.9625 48.575C37.8852 47.0777 36.0014 45.1647 34.575 43.125H15.6626L16.6626 46.1125L31.4625 51.9125L39.9625 48.575Z" fill="white"/>
<path d="M30.7125 65.5376L22.7625 61.5626C21.525 61.4751 20.3 61.3626 19.0625 61.2251L19.1124 61.3766C19.2176 61.6961 19.406 62.2684 19.4125 62.2875C19.4125 62.2876 22.7375 72.2751 22.7375 72.2751C23.4373 73.9918 25.8325 72.8452 25.0125 71.1876L30.7125 68.3376L36.5625 71.2626C35.8041 72.8713 38.2185 73.9556 38.8626 72.2751C38.8625 72.2751 42.5 61.3626 42.5 61.3626C41.1625 61.4876 39.8125 61.5876 38.475 61.6626L30.7125 65.5376ZM24.2125 68.7876L22.7375 64.3501L27.925 66.9376L24.2125 68.7876ZM37.3625 68.8626L33.5125 66.9376L38.9 64.2376L37.3625 68.8626Z" fill="white"/>
<path d="M12.6751 43.1249C11.9876 43.1249 11.4251 42.5624 11.4251 41.8749V39.3749C11.4251 38.6874 11.9876 38.1249 12.6751 38.1249H31.8577C30.182 33.8775 29.7645 29.22 30.6468 24.7441C22.3907 24.6978 14.1377 23.9209 5.98751 22.3999C4.52503 22.1249 3.45004 22.9874 3.58753 24.3749C4.65001 35.2124 5.71254 46.0374 6.77502 56.8749C6.91258 58.2499 8.05004 59.5874 9.31256 59.8249C12.55 60.4374 15.8001 60.8999 19.0625 61.2249L13.025 43.1249L12.6751 43.1249ZM45.7308 51.6636L42.5 61.3624C46.2001 61.0249 49.8751 60.5124 53.5376 59.8249C56.5591 59.1648 56.1455 55.3901 56.4689 52.9871C52.8536 53.385 49.1175 52.9164 45.7308 51.6636ZM68.4607 12.1989C63.8766 8.32015 58.1935 6.61224 52.6372 6.93236C50.3482 13.3686 54.5238 19.7858 60.1272 21.25C61.727 21.7001 62.7269 21.5876 64.002 21.4376C67.9307 20.7391 72.6007 22.1709 75.9932 25.0435C75.0459 20.2013 72.5202 15.6339 68.4607 12.1989Z" fill="white"/>
<path d="M67.8894 23.9127C64.4597 23.3719 63.0946 24.6934 59.4519 23.6501C52.1247 21.7445 48.0489 13.6131 49.9483 7.25451C45.3596 8.07765 41.0119 10.3232 37.6014 13.9334L71.8571 42.9209C75.0363 38.7179 76.5261 33.7284 76.3945 28.7853C73.7336 26.0731 70.8714 24.3738 67.8894 23.9127ZM49.952 7.23765C50.0567 7.23505 50.1633 7.20584 50.272 7.18799C50.1656 7.20675 50.058 7.21675 49.952 7.23765ZM31.4586 29.1052C37.4435 26.2097 46.0797 28.8493 49.1894 35.763C50.1145 37.7127 50.1895 39.1252 50.2645 40.5001C50.2918 44.9974 52.8749 48.7229 57.0581 51.6313C61.9565 50.9439 66.6325 48.649 70.2526 44.817L35.9969 15.8295C33.0021 19.7886 31.5124 24.4458 31.4586 29.1052ZM31.4444 29.5435C31.4433 29.3973 31.4569 29.2514 31.4586 29.1052C31.4355 29.2566 31.4447 29.3997 31.4444 29.5435Z" fill="white"/>
<path d="M48.4769 44.8502C47.2853 41.5068 48.349 39.9255 46.9394 36.8377C44.5777 31.5633 37.5165 28.4982 31.5801 31.8174C32.4229 42.5333 42.5012 51.8778 53.3056 51.854C50.9732 49.781 49.3507 47.4342 48.4769 44.8502Z" fill="white"/>
</svg>
