<svg width="80" height="80" viewBox="0 0 80 80" fill="none" xmlns="http://www.w3.org/2000/svg">
<g clip-path="url(#clip0_94_345)">
<path d="M6.48755 41.8374V46.8749C6.48755 53.7999 12.125 59.4374 19.05 59.4374H67.4376C74.3625 59.4374 80.0001 53.7999 80.0001 46.8749V41.8374H6.48755ZM21.525 56.3124C18.3875 56.3124 15.8375 53.7624 15.8375 50.6249C15.8375 47.4874 18.3875 44.9374 21.525 44.9374C24.6625 44.9374 27.2 47.4874 27.2 50.6249C27.2019 51.3713 27.0564 52.1106 26.772 52.8007C26.4876 53.4907 26.0698 54.1179 25.5427 54.6462C25.0155 55.1745 24.3893 55.5936 23.6999 55.8796C23.0105 56.1655 22.2714 56.3126 21.525 56.3124ZM35.1125 56.3124C31.975 56.3124 29.425 53.7624 29.425 50.6249C29.425 47.4874 31.975 44.9374 35.1125 44.9374C38.25 44.9374 40.8 47.4874 40.8 50.6249C40.8 53.7624 38.25 56.3124 35.1125 56.3124ZM50.4875 56.3124C47.35 56.3124 44.8 53.7624 44.8 50.6249C44.8 47.4874 47.35 44.9374 50.4875 44.9374C53.625 44.9374 56.175 47.4874 56.175 50.6249C56.1625 53.7624 53.6125 56.3124 50.4875 56.3124ZM64.9501 56.3124C61.8125 56.3124 59.2626 53.7624 59.2626 50.6249C59.2626 47.4874 61.8125 44.9374 64.9501 44.9374C68.0876 44.9374 70.6251 47.4874 70.6251 50.6249C70.6269 51.3713 70.4814 52.1106 70.197 52.8007C69.9126 53.4907 69.4948 54.1179 68.9677 54.6462C68.4405 55.1745 67.8143 55.5936 67.1249 55.8796C66.4355 56.1655 65.6964 56.3126 64.9501 56.3124Z" fill="white"/>
<path d="M21.525 46.2375C19.1 46.2375 17.1375 48.2125 17.1375 50.625C17.1375 53.0375 19.1125 55.0125 21.525 55.0125C23.95 55.0125 25.9125 53.0375 25.9125 50.625C25.9125 48.2125 23.95 46.2375 21.525 46.2375Z" fill="white"/>
<path d="M35.1126 55.025C37.5357 55.025 39.5001 53.0606 39.5001 50.6375C39.5001 48.2143 37.5357 46.25 35.1126 46.25C32.6894 46.25 30.7251 48.2143 30.7251 50.6375C30.7251 53.0606 32.6894 55.025 35.1126 55.025Z" fill="white"/>
<path d="M50.4875 46.2375C48.0625 46.2375 46.1 48.2125 46.1 50.625C46.1 53.0375 48.075 55.0125 50.4875 55.0125C52.9125 55.0125 54.875 53.0375 54.875 50.625C54.875 48.2125 52.9125 46.2375 50.4875 46.2375ZM64.95 46.2375C62.525 46.2375 60.5625 48.2125 60.5625 50.625C60.5625 53.0375 62.5375 55.0125 64.95 55.0125C67.375 55.0125 69.3375 53.0375 69.3375 50.625C69.3375 48.2125 67.375 46.2375 64.95 46.2375ZM17.7375 36.05L13.8875 40.5375H72.9875L71.825 37.9875C70.5375 35.2125 68.0375 33.4875 65.2875 33.4875H23.0375C21.0375 33.5 19.1125 34.4375 17.7375 36.05ZM33.1 32.2125H53.3875V25.4125C53.3875 24.8375 52.925 24.375 52.3625 24.375H34.25L2.16247 20.5875C2.07497 20.575 1.99997 20.575 1.91247 20.575C0.949974 20.575 0.124974 21.3 0.0124744 22.275C-0.100026 23.3375 0.662474 24.3 1.71247 24.4125L33.1 28.1125V32.2125Z" fill="white"/>
</g>
<defs>
<clipPath id="clip0_94_345">
<rect width="80" height="80" fill="white"/>
</clipPath>
</defs>
</svg>
