<svg width="80" height="80" viewBox="0 0 80 80" fill="none" xmlns="http://www.w3.org/2000/svg">
<path d="M65 56V19C65 14 61 10 56 10H45V5H55V0H25V5H35V10H24C19 10 15 14 15 19V56C15 61 19 65 24 65H25L21.5 70H15V75H18.5L15 80H25L28 75H52.5L55.5 80H65.5L62 75H65V70H58.5L55 65H56C61 65 65 61 65 56ZM20 19.5C20 17 22 15 24.5 15H55C58 15 60 17 60 19.5V30C60 33 58 35 55.5 35H24.5C22 35 20 33 20 30.5V19.5ZM20 55C20 52 22 50 25 50C28 50 30 52 30 55C30 58 28 60 25 60C22 60 20 58 20 55ZM49.5 70H30.5L33.5 65H46.5L49.5 70ZM50 55C50 52 52 50 55 50C58 50 60 52 60 55C60 58 58 60 55 60C52 60 50 58 50 55Z" fill="white"/>
</svg>
